<mxfile host="Electron" agent="Mozilla/5.0 (Macintosh; Intel Mac OS X 10_15_7) AppleWebKit/537.36 (KHTML, like Gecko) draw.io/24.7.17 Chrome/128.0.6613.36 Electron/32.0.1 Safari/537.36" version="24.7.17">
  <diagram name="Page-1" id="2YBvvXClWsGukQMizWep">
    <mxGraphModel dx="1865" dy="1351" grid="1" gridSize="10" guides="1" tooltips="1" connect="1" arrows="1" fold="1" page="1" pageScale="1" pageWidth="850" pageHeight="1100" math="0" shadow="0">
      <root>
        <mxCell id="0" />
        <mxCell id="1" parent="0" />
        <mxCell id="UQ5WHZic_87VUq4tqxjQ-103" value="" style="rounded=0;whiteSpace=wrap;html=1;fillColor=none;" vertex="1" parent="1">
          <mxGeometry x="1230" y="584" width="880" height="96" as="geometry" />
        </mxCell>
        <mxCell id="UQ5WHZic_87VUq4tqxjQ-56" value="" style="group" vertex="1" connectable="0" parent="1">
          <mxGeometry x="200" y="220" width="680" height="220" as="geometry" />
        </mxCell>
        <mxCell id="UQ5WHZic_87VUq4tqxjQ-55" value="" style="rounded=0;whiteSpace=wrap;html=1;fillColor=none;" vertex="1" parent="UQ5WHZic_87VUq4tqxjQ-56">
          <mxGeometry y="90.58823529411765" width="680" height="129.41176470588235" as="geometry" />
        </mxCell>
        <mxCell id="UQ5WHZic_87VUq4tqxjQ-51" value="alt" style="shape=umlFrame;whiteSpace=wrap;html=1;pointerEvents=0;" vertex="1" parent="UQ5WHZic_87VUq4tqxjQ-56">
          <mxGeometry width="680" height="220" as="geometry" />
        </mxCell>
        <mxCell id="UQ5WHZic_87VUq4tqxjQ-57" value="err.println(timeout)" style="html=1;verticalAlign=bottom;endArrow=open;edgeStyle=elbowEdgeStyle;elbow=vertical;curved=0;rounded=0;dashed=1;endFill=0;" edge="1" parent="UQ5WHZic_87VUq4tqxjQ-56">
          <mxGeometry x="-0.0031" relative="1" as="geometry">
            <mxPoint x="262.7309090909091" y="64.82800540906021" as="sourcePoint" />
            <Array as="points">
              <mxPoint x="288.84000000000003" y="65" />
            </Array>
            <mxPoint x="170.00363636363636" y="64.70156862745078" as="targetPoint" />
            <mxPoint as="offset" />
          </mxGeometry>
        </mxCell>
        <mxCell id="UQ5WHZic_87VUq4tqxjQ-59" value="[socket 30 second&lt;div&gt;timeout]&lt;/div&gt;" style="text;html=1;align=center;verticalAlign=middle;resizable=0;points=[];autosize=1;strokeColor=none;fillColor=none;" vertex="1" parent="UQ5WHZic_87VUq4tqxjQ-56">
          <mxGeometry x="-0.003636363636363882" y="38.82352941176471" width="120" height="40" as="geometry" />
        </mxCell>
        <mxCell id="UQ5WHZic_87VUq4tqxjQ-60" value="[socket connection&lt;div&gt;successful]&lt;/div&gt;" style="text;html=1;align=center;verticalAlign=middle;resizable=0;points=[];autosize=1;strokeColor=none;fillColor=none;" vertex="1" parent="UQ5WHZic_87VUq4tqxjQ-56">
          <mxGeometry y="90.58823529411765" width="120" height="40" as="geometry" />
        </mxCell>
        <mxCell id="UQ5WHZic_87VUq4tqxjQ-62" value="&lt;font style=&quot;font-size: 13px;&quot;&gt;[readLine()&lt;/font&gt;&lt;div style=&quot;font-size: 13px;&quot;&gt;&lt;font style=&quot;font-size: 13px;&quot;&gt;&amp;nbsp;!= null]&lt;/font&gt;&lt;/div&gt;" style="text;html=1;align=center;verticalAlign=middle;resizable=0;points=[];autosize=1;strokeColor=none;fillColor=none;fontSize=13;" vertex="1" parent="UQ5WHZic_87VUq4tqxjQ-56">
          <mxGeometry x="7.36363636363636" y="159.99823529411765" width="90" height="40" as="geometry" />
        </mxCell>
        <mxCell id="UQ5WHZic_87VUq4tqxjQ-61" value="loop" style="shape=umlFrame;whiteSpace=wrap;html=1;pointerEvents=0;" vertex="1" parent="UQ5WHZic_87VUq4tqxjQ-56">
          <mxGeometry x="12.36" y="130.59" width="657.64" height="79.41" as="geometry" />
        </mxCell>
        <mxCell id="UQ5WHZic_87VUq4tqxjQ-64" value="readLine()" style="html=1;verticalAlign=bottom;endArrow=block;edgeStyle=elbowEdgeStyle;elbow=vertical;curved=0;rounded=0;" edge="1" parent="UQ5WHZic_87VUq4tqxjQ-56" target="UQ5WHZic_87VUq4tqxjQ-63">
          <mxGeometry x="-0.0031" relative="1" as="geometry">
            <mxPoint x="276.18" y="150" as="sourcePoint" />
            <Array as="points">
              <mxPoint x="356.17999999999995" y="150" />
            </Array>
            <mxPoint x="406.17999999999995" y="150" as="targetPoint" />
            <mxPoint as="offset" />
          </mxGeometry>
        </mxCell>
        <mxCell id="UQ5WHZic_87VUq4tqxjQ-65" value="return()" style="html=1;verticalAlign=bottom;endArrow=open;edgeStyle=elbowEdgeStyle;elbow=vertical;curved=0;rounded=0;dashed=1;endFill=0;" edge="1" parent="UQ5WHZic_87VUq4tqxjQ-56">
          <mxGeometry x="-0.0053" relative="1" as="geometry">
            <mxPoint x="545" y="179.64" as="sourcePoint" />
            <Array as="points">
              <mxPoint x="529.5427272727272" y="179.64" />
            </Array>
            <mxPoint x="275" y="179.64" as="targetPoint" />
            <mxPoint as="offset" />
          </mxGeometry>
        </mxCell>
        <mxCell id="UQ5WHZic_87VUq4tqxjQ-66" value="out.println(line)" style="html=1;verticalAlign=bottom;endArrow=open;edgeStyle=elbowEdgeStyle;elbow=vertical;curved=0;rounded=0;dashed=1;endFill=0;" edge="1" parent="UQ5WHZic_87VUq4tqxjQ-56">
          <mxGeometry x="-0.0031" relative="1" as="geometry">
            <mxPoint x="262.7309090909091" y="199.4080054090602" as="sourcePoint" />
            <Array as="points">
              <mxPoint x="288.84000000000003" y="199.57999999999998" />
            </Array>
            <mxPoint x="170.00363636363636" y="199.28156862745078" as="targetPoint" />
            <mxPoint as="offset" />
          </mxGeometry>
        </mxCell>
        <mxCell id="UQ5WHZic_87VUq4tqxjQ-1" value=":KWICClient" style="shape=umlLifeline;perimeter=lifelinePerimeter;whiteSpace=wrap;html=1;container=0;dropTarget=0;collapsible=0;recursiveResize=0;outlineConnect=0;portConstraint=eastwest;newEdgeStyle={&quot;edgeStyle&quot;:&quot;elbowEdgeStyle&quot;,&quot;elbow&quot;:&quot;vertical&quot;,&quot;curved&quot;:0,&quot;rounded&quot;:0};" vertex="1" parent="1">
          <mxGeometry x="420" y="80" width="100" height="390" as="geometry" />
        </mxCell>
        <mxCell id="UQ5WHZic_87VUq4tqxjQ-2" value="" style="html=1;points=[];perimeter=orthogonalPerimeter;outlineConnect=0;targetShapes=umlLifeline;portConstraint=eastwest;newEdgeStyle={&quot;edgeStyle&quot;:&quot;elbowEdgeStyle&quot;,&quot;elbow&quot;:&quot;vertical&quot;,&quot;curved&quot;:0,&quot;rounded&quot;:0};" vertex="1" parent="UQ5WHZic_87VUq4tqxjQ-1">
          <mxGeometry x="45" y="70" width="10" height="300" as="geometry" />
        </mxCell>
        <mxCell id="UQ5WHZic_87VUq4tqxjQ-3" value="enter keyword" style="html=1;verticalAlign=bottom;startArrow=oval;endArrow=block;startSize=8;edgeStyle=elbowEdgeStyle;elbow=vertical;curved=0;rounded=0;" edge="1" parent="1">
          <mxGeometry relative="1" as="geometry">
            <mxPoint x="370" y="150" as="sourcePoint" />
            <mxPoint x="470" y="150.33333333333337" as="targetPoint" />
            <Array as="points">
              <mxPoint x="370" y="150" />
            </Array>
          </mxGeometry>
        </mxCell>
        <mxCell id="UQ5WHZic_87VUq4tqxjQ-5" value="bufferedReader: BufferedReader" style="shape=umlLifeline;perimeter=lifelinePerimeter;whiteSpace=wrap;html=1;container=0;dropTarget=0;collapsible=0;recursiveResize=0;outlineConnect=0;portConstraint=eastwest;newEdgeStyle={&quot;edgeStyle&quot;:&quot;elbowEdgeStyle&quot;,&quot;elbow&quot;:&quot;vertical&quot;,&quot;curved&quot;:0,&quot;rounded&quot;:0};" vertex="1" parent="1">
          <mxGeometry x="700" y="80" width="100" height="390" as="geometry" />
        </mxCell>
        <mxCell id="UQ5WHZic_87VUq4tqxjQ-63" value="" style="html=1;points=[];perimeter=orthogonalPerimeter;outlineConnect=0;targetShapes=umlLifeline;portConstraint=eastwest;newEdgeStyle={&quot;edgeStyle&quot;:&quot;elbowEdgeStyle&quot;,&quot;elbow&quot;:&quot;vertical&quot;,&quot;curved&quot;:0,&quot;rounded&quot;:0};" vertex="1" parent="UQ5WHZic_87VUq4tqxjQ-5">
          <mxGeometry x="45" y="260" width="10" height="110" as="geometry" />
        </mxCell>
        <mxCell id="UQ5WHZic_87VUq4tqxjQ-7" value="bufferedWriter: BufferedWriter" style="shape=umlLifeline;perimeter=lifelinePerimeter;whiteSpace=wrap;html=1;container=0;dropTarget=0;collapsible=0;recursiveResize=0;outlineConnect=0;portConstraint=eastwest;newEdgeStyle={&quot;edgeStyle&quot;:&quot;elbowEdgeStyle&quot;,&quot;elbow&quot;:&quot;vertical&quot;,&quot;curved&quot;:0,&quot;rounded&quot;:0};" vertex="1" parent="1">
          <mxGeometry x="560" y="80" width="100" height="390" as="geometry" />
        </mxCell>
        <mxCell id="UQ5WHZic_87VUq4tqxjQ-8" value="" style="html=1;points=[];perimeter=orthogonalPerimeter;outlineConnect=0;targetShapes=umlLifeline;portConstraint=eastwest;newEdgeStyle={&quot;edgeStyle&quot;:&quot;elbowEdgeStyle&quot;,&quot;elbow&quot;:&quot;vertical&quot;,&quot;curved&quot;:0,&quot;rounded&quot;:0};" vertex="1" parent="UQ5WHZic_87VUq4tqxjQ-7">
          <mxGeometry x="45" y="70" width="10" height="190" as="geometry" />
        </mxCell>
        <mxCell id="UQ5WHZic_87VUq4tqxjQ-9" value="write(inputString)" style="html=1;verticalAlign=bottom;endArrow=block;edgeStyle=elbowEdgeStyle;elbow=vertical;curved=0;rounded=0;" edge="1" parent="1" source="UQ5WHZic_87VUq4tqxjQ-2" target="UQ5WHZic_87VUq4tqxjQ-8">
          <mxGeometry x="-0.0031" relative="1" as="geometry">
            <mxPoint x="490" y="170" as="sourcePoint" />
            <Array as="points">
              <mxPoint x="555" y="170" />
            </Array>
            <mxPoint x="590" y="170" as="targetPoint" />
            <mxPoint as="offset" />
          </mxGeometry>
        </mxCell>
        <mxCell id="UQ5WHZic_87VUq4tqxjQ-10" value="bufferedReader: BufferedReader" style="shape=umlLifeline;perimeter=lifelinePerimeter;whiteSpace=wrap;html=1;container=0;dropTarget=0;collapsible=0;recursiveResize=0;outlineConnect=0;portConstraint=eastwest;newEdgeStyle={&quot;edgeStyle&quot;:&quot;elbowEdgeStyle&quot;,&quot;elbow&quot;:&quot;vertical&quot;,&quot;curved&quot;:0,&quot;rounded&quot;:0};" vertex="1" parent="1">
          <mxGeometry x="1620" y="90" width="100" height="610" as="geometry" />
        </mxCell>
        <mxCell id="UQ5WHZic_87VUq4tqxjQ-11" value="" style="html=1;points=[];perimeter=orthogonalPerimeter;outlineConnect=0;targetShapes=umlLifeline;portConstraint=eastwest;newEdgeStyle={&quot;edgeStyle&quot;:&quot;elbowEdgeStyle&quot;,&quot;elbow&quot;:&quot;vertical&quot;,&quot;curved&quot;:0,&quot;rounded&quot;:0};" vertex="1" parent="UQ5WHZic_87VUq4tqxjQ-10">
          <mxGeometry x="45" y="70" width="10" height="70" as="geometry" />
        </mxCell>
        <mxCell id="UQ5WHZic_87VUq4tqxjQ-14" value="Server&amp;nbsp;&lt;span style=&quot;background-color: initial;&quot;&gt;Keyword Fetch Sequence Diagram&lt;/span&gt;" style="text;html=1;align=center;verticalAlign=middle;resizable=0;points=[];autosize=1;strokeColor=none;fillColor=none;" vertex="1" parent="1">
          <mxGeometry x="1620" y="30" width="250" height="30" as="geometry" />
        </mxCell>
        <mxCell id="UQ5WHZic_87VUq4tqxjQ-15" value="&lt;div&gt;Client Keyword Fetch Sequence Diagram&lt;/div&gt;" style="text;html=1;align=center;verticalAlign=middle;resizable=0;points=[];autosize=1;strokeColor=none;fillColor=none;" vertex="1" parent="1">
          <mxGeometry x="450" y="30" width="240" height="30" as="geometry" />
        </mxCell>
        <mxCell id="UQ5WHZic_87VUq4tqxjQ-16" value="requestHandler: RequestHandler" style="shape=umlLifeline;perimeter=lifelinePerimeter;whiteSpace=wrap;html=1;container=0;dropTarget=0;collapsible=0;recursiveResize=0;outlineConnect=0;portConstraint=eastwest;newEdgeStyle={&quot;edgeStyle&quot;:&quot;elbowEdgeStyle&quot;,&quot;elbow&quot;:&quot;vertical&quot;,&quot;curved&quot;:0,&quot;rounded&quot;:0};" vertex="1" parent="1">
          <mxGeometry x="1490" y="90" width="100" height="610" as="geometry" />
        </mxCell>
        <mxCell id="UQ5WHZic_87VUq4tqxjQ-17" value="" style="html=1;points=[];perimeter=orthogonalPerimeter;outlineConnect=0;targetShapes=umlLifeline;portConstraint=eastwest;newEdgeStyle={&quot;edgeStyle&quot;:&quot;elbowEdgeStyle&quot;,&quot;elbow&quot;:&quot;vertical&quot;,&quot;curved&quot;:0,&quot;rounded&quot;:0};" vertex="1" parent="UQ5WHZic_87VUq4tqxjQ-16">
          <mxGeometry x="45" y="70" width="10" height="530" as="geometry" />
        </mxCell>
        <mxCell id="UQ5WHZic_87VUq4tqxjQ-18" value="readLine()" style="html=1;verticalAlign=bottom;endArrow=block;edgeStyle=elbowEdgeStyle;elbow=vertical;curved=0;rounded=0;" edge="1" parent="1">
          <mxGeometry x="-0.0031" relative="1" as="geometry">
            <mxPoint x="1545" y="190" as="sourcePoint" />
            <Array as="points">
              <mxPoint x="1630" y="190" />
            </Array>
            <mxPoint x="1665" y="190" as="targetPoint" />
            <mxPoint as="offset" />
          </mxGeometry>
        </mxCell>
        <mxCell id="UQ5WHZic_87VUq4tqxjQ-23" value="User&lt;div&gt;&lt;br&gt;&lt;/div&gt;" style="shape=umlActor;verticalLabelPosition=bottom;verticalAlign=top;html=1;outlineConnect=0;" vertex="1" parent="1">
          <mxGeometry x="320" y="110" width="30" height="60" as="geometry" />
        </mxCell>
        <mxCell id="UQ5WHZic_87VUq4tqxjQ-46" value="searcher: Searcher" style="shape=umlLifeline;perimeter=lifelinePerimeter;whiteSpace=wrap;html=1;container=0;dropTarget=0;collapsible=0;recursiveResize=0;outlineConnect=0;portConstraint=eastwest;newEdgeStyle={&quot;edgeStyle&quot;:&quot;elbowEdgeStyle&quot;,&quot;elbow&quot;:&quot;vertical&quot;,&quot;curved&quot;:0,&quot;rounded&quot;:0};" vertex="1" parent="1">
          <mxGeometry x="1750" y="90" width="100" height="610" as="geometry" />
        </mxCell>
        <mxCell id="UQ5WHZic_87VUq4tqxjQ-47" value="" style="html=1;points=[];perimeter=orthogonalPerimeter;outlineConnect=0;targetShapes=umlLifeline;portConstraint=eastwest;newEdgeStyle={&quot;edgeStyle&quot;:&quot;elbowEdgeStyle&quot;,&quot;elbow&quot;:&quot;vertical&quot;,&quot;curved&quot;:0,&quot;rounded&quot;:0};" vertex="1" parent="UQ5WHZic_87VUq4tqxjQ-46">
          <mxGeometry x="45" y="150" width="10" height="220" as="geometry" />
        </mxCell>
        <mxCell id="UQ5WHZic_87VUq4tqxjQ-75" value="" style="html=1;points=[];perimeter=orthogonalPerimeter;outlineConnect=0;targetShapes=umlLifeline;portConstraint=eastwest;newEdgeStyle={&quot;edgeStyle&quot;:&quot;elbowEdgeStyle&quot;,&quot;elbow&quot;:&quot;vertical&quot;,&quot;curved&quot;:0,&quot;rounded&quot;:0};" vertex="1" parent="UQ5WHZic_87VUq4tqxjQ-46">
          <mxGeometry x="51" y="257.82" width="10" height="35.18" as="geometry" />
        </mxCell>
        <mxCell id="UQ5WHZic_87VUq4tqxjQ-76" style="edgeStyle=elbowEdgeStyle;rounded=0;orthogonalLoop=1;jettySize=auto;html=1;elbow=vertical;curved=0;" edge="1" parent="UQ5WHZic_87VUq4tqxjQ-46" source="UQ5WHZic_87VUq4tqxjQ-75" target="UQ5WHZic_87VUq4tqxjQ-75">
          <mxGeometry relative="1" as="geometry" />
        </mxCell>
        <mxCell id="UQ5WHZic_87VUq4tqxjQ-31" value="return()" style="html=1;verticalAlign=bottom;endArrow=open;dashed=1;endSize=8;edgeStyle=elbowEdgeStyle;elbow=vertical;curved=0;rounded=0;" edge="1" parent="1">
          <mxGeometry relative="1" as="geometry">
            <mxPoint x="1545" y="216.00000000000003" as="targetPoint" />
            <Array as="points">
              <mxPoint x="1649.6482352941175" y="216.00000000000003" />
              <mxPoint x="1636.3541176470587" y="206.00000000000003" />
              <mxPoint x="1596.4717647058824" y="205.56999999999996" />
            </Array>
            <mxPoint x="1665" y="216.00000000000003" as="sourcePoint" />
          </mxGeometry>
        </mxCell>
        <mxCell id="UQ5WHZic_87VUq4tqxjQ-48" value="search()" style="html=1;verticalAlign=bottom;endArrow=block;edgeStyle=elbowEdgeStyle;elbow=vertical;curved=0;rounded=0;" edge="1" parent="1">
          <mxGeometry x="-0.0031" relative="1" as="geometry">
            <mxPoint x="1545" y="256" as="sourcePoint" />
            <Array as="points">
              <mxPoint x="1670" y="256" />
            </Array>
            <mxPoint x="1795" y="256" as="targetPoint" />
            <mxPoint as="offset" />
          </mxGeometry>
        </mxCell>
        <mxCell id="UQ5WHZic_87VUq4tqxjQ-49" value="lineStorage: LineStorage" style="shape=umlLifeline;perimeter=lifelinePerimeter;whiteSpace=wrap;html=1;container=0;dropTarget=0;collapsible=0;recursiveResize=0;outlineConnect=0;portConstraint=eastwest;newEdgeStyle={&quot;edgeStyle&quot;:&quot;elbowEdgeStyle&quot;,&quot;elbow&quot;:&quot;vertical&quot;,&quot;curved&quot;:0,&quot;rounded&quot;:0};" vertex="1" parent="1">
          <mxGeometry x="1880" y="90" width="100" height="610" as="geometry" />
        </mxCell>
        <mxCell id="UQ5WHZic_87VUq4tqxjQ-50" value="" style="html=1;points=[];perimeter=orthogonalPerimeter;outlineConnect=0;targetShapes=umlLifeline;portConstraint=eastwest;newEdgeStyle={&quot;edgeStyle&quot;:&quot;elbowEdgeStyle&quot;,&quot;elbow&quot;:&quot;vertical&quot;,&quot;curved&quot;:0,&quot;rounded&quot;:0};" vertex="1" parent="UQ5WHZic_87VUq4tqxjQ-49">
          <mxGeometry x="45" y="189" width="10" height="40" as="geometry" />
        </mxCell>
        <mxCell id="UQ5WHZic_87VUq4tqxjQ-21" value="returnTimeout()" style="html=1;verticalAlign=bottom;endArrow=open;edgeStyle=elbowEdgeStyle;elbow=vertical;curved=0;rounded=0;dashed=1;endFill=0;" edge="1" parent="1" source="UQ5WHZic_87VUq4tqxjQ-8" target="UQ5WHZic_87VUq4tqxjQ-2">
          <mxGeometry x="-0.0031" relative="1" as="geometry">
            <mxPoint x="589" y="270" as="sourcePoint" />
            <Array as="points">
              <mxPoint x="533.8181818181818" y="258.8235294117647" />
            </Array>
            <mxPoint x="428.72727272727275" y="258.8235294117645" as="targetPoint" />
            <mxPoint as="offset" />
          </mxGeometry>
        </mxCell>
        <mxCell id="UQ5WHZic_87VUq4tqxjQ-58" value="returnSuccess()" style="html=1;verticalAlign=bottom;endArrow=open;edgeStyle=elbowEdgeStyle;elbow=vertical;curved=0;rounded=0;dashed=1;endFill=0;" edge="1" parent="1" source="UQ5WHZic_87VUq4tqxjQ-8" target="UQ5WHZic_87VUq4tqxjQ-2">
          <mxGeometry x="-0.0037" relative="1" as="geometry">
            <mxPoint x="600.7245454545455" y="330.24" as="sourcePoint" />
            <Array as="points">
              <mxPoint x="594.5427272727272" y="330.24" />
            </Array>
            <mxPoint x="439.99727272727273" y="330.24" as="targetPoint" />
            <mxPoint as="offset" />
          </mxGeometry>
        </mxCell>
        <mxCell id="UQ5WHZic_87VUq4tqxjQ-67" value="loop" style="shape=umlFrame;whiteSpace=wrap;html=1;pointerEvents=0;" vertex="1" parent="1">
          <mxGeometry x="1230" y="271" width="880" height="155" as="geometry" />
        </mxCell>
        <mxCell id="UQ5WHZic_87VUq4tqxjQ-68" value=": KWICServer" style="shape=umlLifeline;perimeter=lifelinePerimeter;whiteSpace=wrap;html=1;container=0;dropTarget=0;collapsible=0;recursiveResize=0;outlineConnect=0;portConstraint=eastwest;newEdgeStyle={&quot;edgeStyle&quot;:&quot;elbowEdgeStyle&quot;,&quot;elbow&quot;:&quot;vertical&quot;,&quot;curved&quot;:0,&quot;rounded&quot;:0};" vertex="1" parent="1">
          <mxGeometry x="1360" y="90" width="100" height="610" as="geometry" />
        </mxCell>
        <mxCell id="UQ5WHZic_87VUq4tqxjQ-69" value="" style="html=1;points=[];perimeter=orthogonalPerimeter;outlineConnect=0;targetShapes=umlLifeline;portConstraint=eastwest;newEdgeStyle={&quot;edgeStyle&quot;:&quot;elbowEdgeStyle&quot;,&quot;elbow&quot;:&quot;vertical&quot;,&quot;curved&quot;:0,&quot;rounded&quot;:0};" vertex="1" parent="UQ5WHZic_87VUq4tqxjQ-68">
          <mxGeometry x="45" y="70" width="10" height="30" as="geometry" />
        </mxCell>
        <mxCell id="UQ5WHZic_87VUq4tqxjQ-70" value="runKeywordSearch()" style="html=1;verticalAlign=bottom;endArrow=block;edgeStyle=elbowEdgeStyle;elbow=vertical;curved=0;rounded=0;" edge="1" parent="1">
          <mxGeometry x="-0.0031" relative="1" as="geometry">
            <mxPoint x="1415" y="170" as="sourcePoint" />
            <Array as="points">
              <mxPoint x="1505" y="170" />
            </Array>
            <mxPoint x="1535" y="170" as="targetPoint" />
            <mxPoint as="offset" />
          </mxGeometry>
        </mxCell>
        <mxCell id="UQ5WHZic_87VUq4tqxjQ-71" value="getShiftedLine()" style="html=1;verticalAlign=bottom;endArrow=block;edgeStyle=elbowEdgeStyle;elbow=vertical;curved=0;rounded=0;" edge="1" parent="1">
          <mxGeometry x="-0.0031" relative="1" as="geometry">
            <mxPoint x="1805" y="290.3333333333335" as="sourcePoint" />
            <Array as="points" />
            <mxPoint x="1925" y="290.3333333333335" as="targetPoint" />
            <mxPoint as="offset" />
          </mxGeometry>
        </mxCell>
        <mxCell id="UQ5WHZic_87VUq4tqxjQ-72" value="return()" style="html=1;verticalAlign=bottom;endArrow=open;dashed=1;endSize=8;edgeStyle=elbowEdgeStyle;elbow=vertical;curved=0;rounded=0;" edge="1" parent="1">
          <mxGeometry relative="1" as="geometry">
            <mxPoint x="1805" y="310" as="targetPoint" />
            <Array as="points">
              <mxPoint x="1909.6482352941175" y="310" />
              <mxPoint x="1896.3541176470587" y="300" />
              <mxPoint x="1856.4717647058824" y="299.56999999999994" />
            </Array>
            <mxPoint x="1925" y="310" as="sourcePoint" />
          </mxGeometry>
        </mxCell>
        <mxCell id="UQ5WHZic_87VUq4tqxjQ-81" value="addLine()" style="text;html=1;align=center;verticalAlign=middle;resizable=0;points=[];autosize=1;strokeColor=none;fillColor=none;" vertex="1" parent="1">
          <mxGeometry x="1830" y="350.71" width="70" height="30" as="geometry" />
        </mxCell>
        <mxCell id="UQ5WHZic_87VUq4tqxjQ-83" value="alt" style="shape=umlFrame;whiteSpace=wrap;html=1;pointerEvents=0;" vertex="1" parent="1">
          <mxGeometry x="1690" y="326" width="260" height="79.41" as="geometry" />
        </mxCell>
        <mxCell id="UQ5WHZic_87VUq4tqxjQ-84" value="[keyword in line&lt;span style=&quot;background-color: initial;&quot;&gt;]&lt;/span&gt;" style="text;html=1;align=center;verticalAlign=middle;resizable=0;points=[];autosize=1;strokeColor=none;fillColor=none;" vertex="1" parent="1">
          <mxGeometry x="1684.9963636363636" y="361.0035294117647" width="110" height="30" as="geometry" />
        </mxCell>
        <mxCell id="UQ5WHZic_87VUq4tqxjQ-85" value="[lineStorage has&lt;div&gt;lines]&lt;/div&gt;" style="text;html=1;align=center;verticalAlign=middle;resizable=0;points=[];autosize=1;strokeColor=none;fillColor=none;" vertex="1" parent="1">
          <mxGeometry x="1249.9963636363636" y="321.0035294117647" width="110" height="40" as="geometry" />
        </mxCell>
        <mxCell id="UQ5WHZic_87VUq4tqxjQ-86" value="return ArrayList()" style="html=1;verticalAlign=bottom;endArrow=open;dashed=1;endSize=8;edgeStyle=elbowEdgeStyle;elbow=vertical;curved=0;rounded=0;" edge="1" parent="1" source="UQ5WHZic_87VUq4tqxjQ-47" target="UQ5WHZic_87VUq4tqxjQ-17">
          <mxGeometry relative="1" as="geometry">
            <mxPoint x="1550" y="450" as="targetPoint" />
            <Array as="points">
              <mxPoint x="1654.6482352941175" y="450" />
              <mxPoint x="1641.3541176470587" y="440" />
              <mxPoint x="1601.4717647058824" y="439.56999999999994" />
            </Array>
            <mxPoint x="1670" y="450" as="sourcePoint" />
          </mxGeometry>
        </mxCell>
        <mxCell id="UQ5WHZic_87VUq4tqxjQ-87" value="bufferedWriter: BufferedWriter" style="shape=umlLifeline;perimeter=lifelinePerimeter;whiteSpace=wrap;html=1;container=0;dropTarget=0;collapsible=0;recursiveResize=0;outlineConnect=0;portConstraint=eastwest;newEdgeStyle={&quot;edgeStyle&quot;:&quot;elbowEdgeStyle&quot;,&quot;elbow&quot;:&quot;vertical&quot;,&quot;curved&quot;:0,&quot;rounded&quot;:0};" vertex="1" parent="1">
          <mxGeometry x="2010" y="90" width="100" height="610" as="geometry" />
        </mxCell>
        <mxCell id="UQ5WHZic_87VUq4tqxjQ-88" value="" style="html=1;points=[];perimeter=orthogonalPerimeter;outlineConnect=0;targetShapes=umlLifeline;portConstraint=eastwest;newEdgeStyle={&quot;edgeStyle&quot;:&quot;elbowEdgeStyle&quot;,&quot;elbow&quot;:&quot;vertical&quot;,&quot;curved&quot;:0,&quot;rounded&quot;:0};" vertex="1" parent="UQ5WHZic_87VUq4tqxjQ-87">
          <mxGeometry x="45" y="360" width="10" height="240" as="geometry" />
        </mxCell>
        <mxCell id="UQ5WHZic_87VUq4tqxjQ-89" value="alt" style="shape=umlFrame;whiteSpace=wrap;html=1;pointerEvents=0;" vertex="1" parent="1">
          <mxGeometry x="1230" y="469.3" width="880" height="114.7" as="geometry" />
        </mxCell>
        <mxCell id="UQ5WHZic_87VUq4tqxjQ-90" value="[ArrayList has&lt;div&gt;lines]&lt;/div&gt;" style="text;html=1;align=center;verticalAlign=middle;resizable=0;points=[];autosize=1;strokeColor=none;fillColor=none;" vertex="1" parent="1">
          <mxGeometry x="1254.9963636363636" y="512.6535294117647" width="100" height="40" as="geometry" />
        </mxCell>
        <mxCell id="UQ5WHZic_87VUq4tqxjQ-91" value="loop" style="shape=umlFrame;whiteSpace=wrap;html=1;pointerEvents=0;" vertex="1" parent="1">
          <mxGeometry x="1420" y="480" width="660" height="90" as="geometry" />
        </mxCell>
        <mxCell id="UQ5WHZic_87VUq4tqxjQ-92" value="writeLine()" style="html=1;verticalAlign=bottom;endArrow=block;edgeStyle=elbowEdgeStyle;elbow=vertical;curved=0;rounded=0;" edge="1" parent="1">
          <mxGeometry x="-0.0031" relative="1" as="geometry">
            <mxPoint x="1545" y="509" as="sourcePoint" />
            <Array as="points">
              <mxPoint x="1635" y="509" />
            </Array>
            <mxPoint x="2055" y="509" as="targetPoint" />
            <mxPoint as="offset" />
          </mxGeometry>
        </mxCell>
        <mxCell id="UQ5WHZic_87VUq4tqxjQ-93" value="return" style="html=1;verticalAlign=bottom;endArrow=open;dashed=1;endSize=8;edgeStyle=elbowEdgeStyle;elbow=vertical;curved=0;rounded=0;" edge="1" parent="1">
          <mxGeometry relative="1" as="geometry">
            <mxPoint x="1545" y="537.23" as="targetPoint" />
            <Array as="points">
              <mxPoint x="1899.6482352941175" y="537.23" />
              <mxPoint x="1886.3541176470587" y="527.23" />
              <mxPoint x="1846.4717647058824" y="526.8" />
            </Array>
            <mxPoint x="2055" y="537.23" as="sourcePoint" />
          </mxGeometry>
        </mxCell>
        <mxCell id="UQ5WHZic_87VUq4tqxjQ-94" value="[ArrayList has&lt;div&gt;lines]&lt;/div&gt;" style="text;html=1;align=center;verticalAlign=middle;resizable=0;points=[];autosize=1;strokeColor=none;fillColor=none;" vertex="1" parent="1">
          <mxGeometry x="1429.9963636363636" y="512.6535294117647" width="100" height="40" as="geometry" />
        </mxCell>
        <mxCell id="UQ5WHZic_87VUq4tqxjQ-101" value="writeNotFound()" style="html=1;verticalAlign=bottom;endArrow=block;edgeStyle=elbowEdgeStyle;elbow=vertical;curved=0;rounded=0;" edge="1" parent="1">
          <mxGeometry x="-0.0031" relative="1" as="geometry">
            <mxPoint x="1545" y="615" as="sourcePoint" />
            <Array as="points">
              <mxPoint x="1635" y="615" />
            </Array>
            <mxPoint x="2055" y="615" as="targetPoint" />
            <mxPoint as="offset" />
          </mxGeometry>
        </mxCell>
        <mxCell id="UQ5WHZic_87VUq4tqxjQ-102" value="return" style="html=1;verticalAlign=bottom;endArrow=open;dashed=1;endSize=8;edgeStyle=elbowEdgeStyle;elbow=vertical;curved=0;rounded=0;" edge="1" parent="1">
          <mxGeometry relative="1" as="geometry">
            <mxPoint x="1546" y="644.23" as="targetPoint" />
            <Array as="points">
              <mxPoint x="1900.6482352941175" y="644.23" />
              <mxPoint x="1887.3541176470587" y="634.23" />
              <mxPoint x="1847.4717647058824" y="633.8" />
            </Array>
            <mxPoint x="2056" y="644.23" as="sourcePoint" />
          </mxGeometry>
        </mxCell>
        <mxCell id="UQ5WHZic_87VUq4tqxjQ-104" value="[else]" style="text;html=1;align=center;verticalAlign=middle;resizable=0;points=[];autosize=1;strokeColor=none;fillColor=none;" vertex="1" parent="1">
          <mxGeometry x="1279.9963636363636" y="605.0035294117647" width="50" height="30" as="geometry" />
        </mxCell>
      </root>
    </mxGraphModel>
  </diagram>
</mxfile>
